<svg width="182" height="87" viewBox="0 0 182 87" fill="none" xmlns="http://www.w3.org/2000/svg">
<path d="M42.098 68H28.334L17.67 45.928L13.764 68H0L7.75 24.104H21.514L32.116 46.548L36.084 24.104H49.848L42.098 68ZM77.6424 61.366H63.0104L59.6624 68H45.2164L69.0244 24.104H84.8964L93.1424 68H78.6344L77.6424 61.366ZM76.1544 51.012L74.3564 38.798L68.2184 51.012H76.1544ZM135.02 24.104L133.098 35.016H115.862L114.808 41.092H127.208L125.348 51.446H112.948L110.034 68H96.2695L104.02 24.104H135.02Z" fill="url(#paint0_linear_315_64)"/>
<defs>
<linearGradient id="paint0_linear_315_64" x1="-1.08531e-06" y1="44" x2="146.5" y2="44" gradientUnits="userSpaceOnUse">
<stop stop-color="#3300FF"/>
<stop offset="0.811687" stop-color="#FF00A8"/>
</linearGradient>
</defs>
</svg>
